<svg xmlns="http://www.w3.org/2000/svg" class="icon" height="512" viewBox="0 0 1024 1024" version="1.1"><path d="M968.525375 324.111122c-25.373177-59.98944-61.693067-113.861124-107.951792-160.118842-46.257718-46.258725-100.13041-82.578615-160.118842-107.951792C638.338787 29.767167 572.363493 16.445242 504.364385 16.445242S370.390991 29.767167 308.275037 56.040487c-59.98944 25.373177-113.862131 61.693067-160.119849 107.951792-46.258725 46.257718-82.578615 100.13041-107.951792 160.118842C13.930075 386.228082 0.608151 452.202369 0.608151 520.201477s13.321925 133.973395 39.595245 196.090355c25.373177 59.98944 61.693067 113.861124 107.951792 160.119849 46.257718 46.258725 100.13041 82.579622 160.119849 107.951792 62.11696 26.273321 128.090241 39.595245 196.089348 39.595245s133.974401-13.320918 196.090355-39.595245c59.988433-25.373177 113.861124-61.693067 160.118842-107.951792 46.258725-46.258725 82.579622-100.13041 107.951792-160.119849 26.273321-62.11696 39.595245-128.091248 39.595245-196.090355S994.799702 386.228082 968.525375 324.111122zM506.613738 650.745465c-9.908628 0-18.250564-3.389131-25.02782-10.170415-6.778263-6.778263-10.167394-15.120198-10.167394-25.024799 0-9.909635 3.389131-18.251571 10.167394-25.028827 6.778263-6.778263 15.120198-10.167394 25.02782-10.167394 9.385055 0 17.469231 3.389131 24.247494 10.167394 6.778263 6.778263 10.166388 15.120198 10.166388 25.028827 0 9.905608-3.389131 18.247543-10.166388 25.024799C524.083975 647.356333 515.999799 650.745465 506.613738 650.745465zM573.093475 466.161644c-9.904601 8.341935-18.77011 16.032424-26.591492 23.072474-7.818362 7.039043-11.46928 13.687419-10.949734 19.945129l0 13.294739c0 7.301836-2.475898 13.556526-7.428702 18.77011-4.951797 5.215597-11.860953 8.084176-20.726462 8.603722-8.865509-0.519546-15.901531-3.389131-21.116122-8.603722-5.214591-5.214591-8.083169-10.68694-8.602715-16.425105l0-21.116122c0.519546-11.991847 4.952804-22.421028 13.294739-31.283516 8.341935-8.865509 17.337331-17.207444 26.984172-25.028827 9.643821-7.821382 18.508323-15.512878 26.592499-23.071467 8.079142-7.56463 12.123747-16.295218 12.123747-26.203846 0.519546-13.035973-4.301358-23.853807-14.471773-32.457529-10.168401-8.602715-23.854814-12.906087-41.061251-12.906087-8.341935 0-16.032424 2.087246-23.072474 6.25771-7.04005 4.171471-13.035973 9.386062-17.988777 15.643772-4.952804 6.254689-8.861481 12.6443-11.731067 19.159769-2.868579 6.520504-4.301358 12.123747-4.301358 16.818792 0 7.297809-2.868579 13.031946-8.604729 17.206437-5.734137 4.171471-12.123747 6.123796-19.16279 5.86503-7.04005-0.261787-13.425633-2.606792-19.159769-7.039043-5.738164-4.432251-8.865509-11.603194-9.385055-21.508802 0-8.341935 1.821432-18.901003 5.47235-31.676196 3.650918-12.774186 10.167394-24.897933 19.552449-36.371241 9.386062-11.468273 21.901482-21.377908 37.545254-29.719844 15.639744-8.341935 34.933427-12.5124 57.875008-12.5124 18.771117 0 35.065328 2.733658 48.88364 8.210035 13.818313 5.476377 25.160727 13.035973 34.022208 22.683822 8.864502 9.642814 15.122212 20.985228 18.774137 34.021201 3.647898 13.035973 5.210563 26.854286 4.69001 41.453931-1.043119 13.556526-5.734137 25.679266-14.080099 36.367213C592.125371 448.304768 583.00311 457.819709 573.093475 466.161644zM609.584534 977.319396c2.309765-0.953508 4.723237-1.609988 7.272637-1.858686 0.331261-0.03222 0.662522-0.06746 0.992776-0.09968C615.102193 976.040668 612.346384 976.689094 609.584534 977.319396zM835.93945 851.777548c-8.176808 8.176808-16.605335 16.009266-25.262421 23.500395-0.133914-10.765476-0.733003-21.439328-1.858686-32.004437-1.275707-12.00695-3.192791-21.840063-5.747226-29.503366-4.600399-13.795155-12.388554-24.65125-23.372522-32.568285-10.983968-7.921063-23.499388-14.561384-37.552302-19.928013-14.048886-5.361594-28.605236-10.088858-43.681132-14.175752-15.069855-4.085887-28.734116-8.686286-40.996811-13.791127-14.304632-5.622374-25.417479-12.00695-33.333508-19.160776-7.921063-7.150806-13.796161-14.68523-17.626303-22.606292-3.834169-7.916028-5.874092-15.837091-6.131851-23.75312-0.255746-7.921063 0.384625-15.712239 1.917084-23.375543 2.041937-12.769152 6.131851-21.84107 12.260682-27.201657 6.131851-5.365621 13.795155-11.879077 22.990918-19.543387 4.085887-3.57641 7.791176-8.557406 11.11184-14.941982 3.320664-6.388603 6.256703-12.901052 8.811138-19.542381 2.555441-7.663304 5.108869-15.837091 7.663304-24.523377 6.131851-1.532459 12.00695-4.343646 17.625296-8.43054 4.599392-3.57641 8.943038-8.429533 13.029932-14.557357 4.085887-6.131851 6.641328-14.818137 7.663304-26.055836 1.018955-8.176808 0.509477-15.069855-1.536487-20.692229-2.041937-5.619353-4.339619-10.218745-6.894053-13.792134-3.066932-4.089914-6.897074-7.410579-11.497472-9.965013 0.513505-20.432455-0.50847-40.868938-3.063912-61.305421-2.554435-17.368544-7.025954-36.015815-13.410529-55.9398-6.388603-19.922978-15.964964-38.061779-28.738143-54.407341-6.131851-7.153826-13.795155-14.304632-22.990918-21.458458-9.195763-7.150806-19.538353-13.539409-31.035826-19.157755-11.493445-5.618346-24.009872-10.089865-37.549281-13.410529-13.538402-3.320664-27.715161-4.980996-42.529271-4.980996-11.750197 0-23.75614 0.895109-36.015815 2.683314-12.263702 1.788205-24.652256 5.237749-37.167677 10.34259-12.516427 5.109876-24.65125 12.135829-36.401447 21.073833-11.750197 8.943038-22.477413 20.564356-32.185674 34.868988-10.728222 14.814109-18.644251 31.545303-23.754127 50.193581-5.108869 18.648278-8.685279 36.145701-10.731243 52.495291-2.041937 19.413501-3.064919 38.823981-3.064919 58.237482-5.618346 5.108869-9.960986 10.47449-13.025904 16.092837-3.066932 5.109876-5.237749 11.241727-6.516476 18.391526-1.2747 7.153826-0.638357 15.069855 1.917084 23.757147 2.554435 8.686286 5.875099 15.455487 9.960986 20.30861 4.086894 4.853124 8.172781 8.557406 12.263702 11.11184 4.595364 2.554435 9.194756 4.086894 13.791127 4.596371 2.553428 8.686286 5.108869 16.860073 7.663304 24.523377 2.554435 6.641328 5.493494 13.153777 8.814158 19.542381 3.320664 6.383569 7.022933 11.364565 11.10882 14.941982 8.176808 7.151813 15.841119 14.176759 22.990918 21.073833 7.150806 6.898081 11.24072 16.221716 12.259675 27.971914 0.513505 8.172781 0.76623 15.580339 0.76623 22.221667 0 6.641328-1.275707 13.028925-3.830141 19.156749-2.555441 6.132858-6.641328 12.263702-12.260682 18.391526-5.622374 6.131851-13.795155 12.520455-24.52237 19.160776-13.795155 8.682258-29.504373 15.323586-47.129669 19.922978-17.625296 4.596371-34.612235 9.83412-50.958804 15.708212-16.349589 5.875099-30.655228 13.667282-42.914903 23.372522-12.262695 9.708261-19.927006 24.012893-22.990918 42.913896-2.445692 17.656509-3.831148 33.563075-4.18154 47.752923-8.672189-7.502204-17.113805-15.346745-25.303703-23.536642C84.220824 763.210058 35.444918 645.454352 35.444918 520.201477c0-125.252875 48.775905-243.008581 137.343395-331.575065C261.355804 100.058922 379.11151 51.283017 504.364385 51.283017s243.008581 48.775905 331.575065 137.343395c88.56749 88.566484 137.343395 206.323196 137.343395 331.575065C973.282846 645.454352 924.50694 763.210058 835.93945 851.777548z"/></svg>